<svg width="512" height="512" viewBox="0 0 512 512" fill="none" xmlns="http://www.w3.org/2000/svg">
<path d="M261.56 101.28C260.072 99.8558 258.091 99.0609 256.03 99.0609C253.97 99.0609 251.989 99.8558 250.5 101.28L66.4004 277.15C65.6185 277.898 64.9965 278.797 64.572 279.792C64.1474 280.787 63.9292 281.858 63.9304 282.94L63.9004 448C63.9004 456.487 67.2718 464.626 73.273 470.627C79.2741 476.629 87.4135 480 95.9004 480H192C196.244 480 200.314 478.314 203.314 475.314C206.315 472.313 208 468.243 208 464V328C208 325.878 208.843 323.843 210.344 322.343C211.844 320.843 213.879 320 216 320H296C298.122 320 300.157 320.843 301.657 322.343C303.158 323.843 304 325.878 304 328V464C304 468.243 305.686 472.313 308.687 475.314C311.687 478.314 315.757 480 320 480H416.06C424.547 480 432.687 476.629 438.688 470.627C444.689 464.626 448.06 456.487 448.06 448V282.94C448.062 281.858 447.843 280.787 447.419 279.792C446.994 278.797 446.372 277.898 445.59 277.15L261.56 101.28Z" fill="#E3FBAE"/>
<path d="M490.91 244.15L416.11 172.59V64C416.11 59.7565 414.425 55.6869 411.424 52.6863C408.423 49.6857 404.354 48 400.11 48H352.11C347.867 48 343.797 49.6857 340.797 52.6863C337.796 55.6869 336.11 59.7565 336.11 64V96L278.19 40.62C272.77 35.14 264.71 32 256 32C247.32 32 239.28 35.14 233.86 40.63L21.1604 244.13C14.9404 250.13 14.1604 260 19.8204 266.5C21.2417 268.141 22.982 269.475 24.9354 270.422C26.8887 271.368 29.0143 271.908 31.1828 272.007C33.3512 272.106 35.5172 271.763 37.5488 270.999C39.5804 270.234 41.4353 269.064 43.0004 267.56L250.5 69.28C251.989 67.8558 253.97 67.0609 256.03 67.0609C258.091 67.0609 260.072 67.8558 261.56 69.28L469.08 267.56C472.137 270.491 476.232 272.091 480.466 272.009C484.701 271.926 488.73 270.168 491.67 267.12C497.81 260.76 497.3 250.26 490.91 244.15Z" fill="#E3FBAE"/>
</svg>
