<svg width="144" height="140" viewBox="0 0 144 140" fill="none" xmlns="http://www.w3.org/2000/svg">
<path d="M69.4287 28C69.4287 54.6667 70.0287 62.5 72.0859 62.5C74.0573 62.5 74.5716 55.6667 74.5716 28.6667V3.8147e-06H72.0001H69.4287V28Z" fill="#E3FBAE"/>
<path d="M45.1711 5.33334C43.8854 5.75 42.9425 6.58334 43.1997 7.08334C43.3711 7.5 47.8282 18.3333 53.0568 31.0833C63.6854 56.9167 64.9711 59.6667 67.714 62.0833L69.6854 63.75L69.0854 59.25C68.5711 55.4167 49.6282 6.5 48.0854 4.91667C47.8282 4.66667 46.4568 4.83334 45.1711 5.33334Z" fill="#E3FBAE"/>
<path d="M87.5999 28.5C76.0284 54.75 74.5713 58.4167 74.5713 61.5V63.5834L76.7999 61.5834C77.9999 60.5 79.9713 57.8334 81.0856 55.6667C83.7427 50.5 102.943 7.33338 102.686 7.08338C102.171 6.66671 98.657 5.00005 98.3141 5.00005C98.1427 5.00005 93.3427 15.5834 87.5999 28.5Z" fill="#E3FBAE"/>
<path d="M20.9999 20.8333C19.3713 22.5833 19.5428 22.75 39.5142 42.1667C56.8285 59.1666 65.1428 66.0833 66.5142 64.75C67.7999 63.5 61.3713 56.25 43.7999 38.9167C32.7428 28.0833 23.4856 19.1667 23.1428 19.1667C22.7999 19.1667 21.8571 19.9167 20.9999 20.8333Z" fill="#E3FBAE"/>
<path d="M100.457 38.6666C78.9425 59.8333 72.4282 68.3333 81.2568 63.8333C82.5425 63.1666 92.8282 53.5833 104.057 42.5833C124.371 22.75 124.628 22.5833 123 20.8333C122.142 19.9166 121.2 19.1666 120.857 19.1666C120.514 19.1666 111.342 27.9166 100.457 38.6666Z" fill="#E3FBAE"/>
<path d="M6.08587 42.3333C5.48587 43.5 5.40016 44.6667 5.74301 45.0833C6.08587 45.4167 18.1716 50.5833 32.5716 56.5833C51.943 64.6667 59.6573 67.5 62.143 67.5L65.5716 67.4167L63.0002 65.3333C59.2287 62.25 56.0573 60.75 30.343 50L7.02873 40.1667L6.08587 42.3333Z" fill="#E3FBAE"/>
<path d="M111.771 52.0833C88.9712 60.9166 78.8569 65.5833 78.8569 67.1666C78.8569 67.4999 80.9141 67.4999 83.3998 67.3333C86.4855 67.0833 95.9141 63.8333 113.571 57.0833C127.714 51.5833 139.371 47.0833 139.543 46.9999C139.714 46.9166 139.285 45.7499 138.686 44.4999L137.571 42.0833L111.771 52.0833Z" fill="#E3FBAE"/>
<path d="M68.2501 65.9375C67.2215 67.0208 67.6929 67.9883 67.1786 68.4375C67.4357 68.4375 65.9572 68.7083 65.3572 69.375C65.3572 69.5508 65.2286 70.8333 65.8286 70.8333C66.3429 70.8333 66.6001 71.4167 66.3429 72.0833C66.0001 72.75 66.2572 73.3333 66.8572 73.3333C68.5715 73.3333 66.8572 75 63.1715 76.75C59.7429 78.5 19.7144 116.167 19.7144 117.667C19.7144 118.083 20.4001 119.083 21.2572 120C22.7144 121.583 23.3144 121.083 43.0286 101.833C54.1715 91 63.8572 80.9167 64.5429 79.5833C66.2572 76.25 69.9429 72.4167 70.7144 73.1667C71.0572 73.5 70.8858 72.9167 70.2001 71.9167C69.2572 70.4167 71.1121 73.8333 72.1406 72.0833C72.7406 70.9167 71.25 73.3333 71.6786 73.3333C72.1072 73.3333 73.0206 71.3333 72.7634 71.75C72.5063 72.1667 73.2429 71.2292 73.9286 71.5625C74.6143 71.8125 75.4286 71.75 74.6572 70.1667C74.6572 72 74.7429 72 75.4286 70.4167C75.9429 69.25 67.1786 71.9792 67.1786 72.8125C67.2643 73.5625 69.6214 72.2292 69.1072 72.8125C68.1643 73.6458 73.7786 72.6875 74.8929 73.4375C75.6643 74.0208 77.5715 76.75 78.3429 78.3333C79.2001 79.9167 89.1429 90.3333 100.457 101.333C120.6 121 121.114 121.417 122.657 119.917C123.6 119 124.286 118 124.286 117.667C124.286 116.167 85.8001 80.0833 81.0858 77.1667C77.5715 75 76.3715 73.8333 77.1429 73.3333C77.7429 73 77.9144 72.25 77.6572 71.75C77.3144 71.25 77.5715 70.8333 78.1715 70.8333C79.0286 70.8333 79.0286 70.6667 78.0858 70.0833C77.4858 69.6667 77.2286 68.9167 77.4858 68.4167C77.9144 67.8333 77.4001 67.5833 76.1144 67.75C77.6572 67.75 75.2572 67.9792 75.4286 66.5625C75.7715 64.1458 70.8215 63.3542 68.2501 65.9375Z" fill="#E3FBAE"/>
<path d="M0 70.1666V72.9166L29.1429 72.6666C50.7429 72.5 59.1429 72.1666 61.4571 71.3333L64.7143 70.1666L62.1429 69.0833C60.1714 68.25 52.3714 67.9166 29.8286 67.6666L0 67.4166V70.1666Z" fill="#E3FBAE"/>
<path d="M84.6001 68.6666C82.3715 69.25 80.3144 70 80.0572 70.25C78.4287 71.8333 88.7144 72.5 115.114 72.75L144 72.9166V70.1666V67.5L116.4 67.5833C96.7715 67.5833 87.5144 67.9166 84.6001 68.6666Z" fill="#E3FBAE"/>
<path d="M59.5713 73.3333C57.257 73.6667 43.7999 78.3333 29.7427 83.75C6.34271 92.8333 4.28557 93.75 4.79985 95.3333C5.057 96.3333 5.657 97.4167 5.99985 97.75C6.34271 98.0833 18.6856 93.6667 33.5141 87.9167C53.3998 80.1667 61.1141 76.8333 62.9998 75C64.3713 73.5833 65.1427 72.5833 64.7141 72.5833C64.1998 72.6667 61.9713 73 59.5713 73.3333Z" fill="#E3FBAE"/>
<path d="M81.3427 75.3334C83.3998 77.4167 90.5141 80.8334 110.314 89.1667C135.086 99.6667 136.628 100.167 137.657 98.75C138.343 97.9167 138.857 96.75 138.857 96.25C138.857 95 86.9141 73.6667 82.3713 73.0834L78.6855 72.6667L81.3427 75.3334Z" fill="#E3FBAE"/>
<path d="M69.4287 75.0833C69.4287 75.5 69.8573 75.6667 70.2859 75.4167C70.8001 75.1667 71.143 75.3333 71.143 75.9167C71.143 76.5833 71.4001 76.6667 72.2573 75.9167C72.943 75.4167 73.7144 75.25 73.9716 75.5833C74.3144 75.8333 74.5716 75.6667 74.5716 75.1667C74.5716 74.5833 73.4573 74.1667 72.0001 74.1667C70.6287 74.1667 69.4287 74.5833 69.4287 75.0833Z" fill="#E3FBAE"/>
<path d="M66.1711 80C63.6854 82.9166 40.4568 133.083 41.2283 133.667C41.3997 133.75 42.514 134.25 43.7997 134.75L45.9425 135.667L57.2568 110.083C66.8568 88.3333 71.0568 76.6666 69.2568 76.6666C68.9997 76.6666 67.6283 78.1666 66.1711 80Z" fill="#E3FBAE"/>
<path d="M74.9139 80.9167C75.2568 84.1667 78.5139 93.1667 85.5425 110.5C95.1425 133.917 95.9139 135.417 97.7996 135.167C98.9139 135.083 100.028 134.667 100.371 134.333C101.228 133.333 79.5425 82 76.8854 79L74.4854 76.25L74.9139 80.9167Z" fill="#E3FBAE"/>
<path d="M70.4573 80.6667C69.7716 82.9167 69.4287 93 69.4287 112V140H72.0001H74.5716V112.167C74.5716 86 74.143 80.4167 72.0001 78.0833C71.6573 77.75 70.9716 78.9167 70.4573 80.6667Z" fill="#E3FBAE"/>
</svg>
